<svg version="1.1" id="Layer_1" xmlns="http://www.w3.org/2000/svg" xmlns:xlink="http://www.w3.org/1999/xlink" x="0px" y="0px"
	 width="100%" viewBox="0 0 212 211" enable-background="new 0 0 212 211" xml:space="preserve">
<path fill="#5567FF" opacity="1.000000" stroke="none" 
	d="
M213.000000,77.000000 
	C213.000000,122.333336 213.000000,167.166672 213.000000,212.000000 
	C142.333328,212.000000 71.666664,212.000000 1.000000,212.000000 
	C1.000000,141.666672 1.000000,71.333336 1.000000,1.000000 
	C71.666664,1.000000 142.333328,1.000000 213.000000,1.000000 
	C213.000000,26.166666 213.000000,51.333332 213.000000,77.000000 
M178.139557,193.025650 
	C177.212158,192.040421 176.468109,190.582260 175.329849,190.140945 
	C158.399002,183.576904 140.952881,179.099854 122.260895,177.932419 
	C122.260895,174.507431 122.043343,171.372040 122.370628,168.294571 
	C122.497154,167.104797 123.611694,165.609848 124.696175,164.995804 
	C135.353470,158.961441 143.127884,150.410263 148.370361,139.335754 
	C149.247711,137.482407 151.610779,135.792282 153.647507,135.123322 
	C161.561813,132.523941 165.922623,126.719406 166.174973,118.200821 
	C166.301880,113.916992 164.896851,111.267258 160.558060,110.129616 
	C159.585480,109.874619 159.018661,108.072144 158.887711,106.566505 
	C159.258453,104.362625 159.834488,102.170609 159.962753,99.952698 
	C160.407516,92.261108 160.696701,84.560524 161.628326,76.485931 
	C173.782990,71.570595 185.901596,66.562622 198.118362,61.806797 
	C201.071777,60.657070 202.134842,59.091816 202.148758,55.939808 
	C202.162872,52.745693 200.996246,51.258659 198.070953,50.100498 
	C168.717758,38.479256 139.432663,26.685949 110.075096,15.075903 
	C108.428955,14.424902 106.070656,14.362413 104.455139,15.026545 
	C76.355865,26.578030 48.310040,38.259949 20.279873,49.978752 
	C13.243970,52.920307 13.287793,53.025127 14.367203,60.186909 
	C28.222755,65.823685 41.898582,71.324234 55.486683,77.033562 
	C56.589485,77.496918 57.745068,79.376793 57.769337,80.620049 
	C57.957378,90.253784 57.873066,99.892830 57.873066,108.514580 
	C55.075768,110.796455 51.759178,112.204697 50.695076,114.609604 
	C47.301239,122.279762 54.513630,133.801376 62.897850,134.172333 
	C66.101524,134.314087 67.051384,135.650925 68.221718,138.011398 
	C72.297340,146.231613 76.374252,154.483978 84.758179,159.425964 
	C87.171257,160.848358 89.509644,162.443970 91.683464,164.205505 
	C92.721245,165.046478 93.850937,166.407272 93.969528,167.626877 
	C94.285980,170.881256 94.077232,174.186707 94.077232,177.641968 
	C92.784233,177.841309 91.993690,178.017120 91.194374,178.078506 
	C74.138702,179.388245 57.802250,183.752457 41.856819,189.740494 
	C40.091091,190.403595 36.940525,190.246628 39.465481,194.238586 
	C41.082680,194.492096 42.699669,194.965454 44.317108,194.966995 
	C87.001541,195.007553 129.686050,195.017273 172.370392,194.939346 
	C174.233871,194.935959 176.095734,194.052368 178.139557,193.025650 
z"/>
<path fill="#EFF1FF" opacity="1.000000" stroke="none" 
	d="
M158.265045,106.982071 
	C159.018661,108.072144 159.585480,109.874619 160.558060,110.129616 
	C164.896851,111.267258 166.301880,113.916992 166.174973,118.200821 
	C165.922623,126.719406 161.561813,132.523941 153.647507,135.123322 
	C151.610779,135.792282 149.247711,137.482407 148.370361,139.335754 
	C143.127884,150.410263 135.353470,158.961441 124.696175,164.995804 
	C123.611694,165.609848 122.497154,167.104797 122.370628,168.294571 
	C122.043343,171.372040 122.260895,174.507431 122.260895,177.932419 
	C140.952881,179.099854 158.399002,183.576904 175.329849,190.140945 
	C176.468109,190.582260 177.212158,192.040421 177.587463,193.379547 
	C130.921616,193.748062 84.807854,193.762711 38.694088,193.777359 
	C36.940525,190.246628 40.091091,190.403595 41.856819,189.740494 
	C57.802250,183.752457 74.138702,179.388245 91.194374,178.078506 
	C91.993690,178.017120 92.784233,177.841309 94.077232,177.641968 
	C94.077232,174.186707 94.285980,170.881256 93.969528,167.626877 
	C93.850937,166.407272 92.721245,165.046478 91.683464,164.205505 
	C89.509644,162.443970 87.171257,160.848358 84.758179,159.425964 
	C76.374252,154.483978 72.297340,146.231613 68.221718,138.011398 
	C67.051384,135.650925 66.101524,134.314087 62.897850,134.172333 
	C54.513630,133.801376 47.301239,122.279762 50.695076,114.609604 
	C51.759178,112.204697 55.075768,110.796455 57.873066,108.514580 
	C57.873066,99.892830 57.957378,90.253784 57.769337,80.620049 
	C57.745068,79.376793 56.589485,77.496918 55.486683,77.033562 
	C41.898582,71.324234 28.222755,65.823685 14.367203,60.186909 
	C13.287793,53.025127 13.243970,52.920307 20.279873,49.978752 
	C48.310040,38.259949 76.355865,26.578030 104.455139,15.026545 
	C106.070656,14.362413 108.428955,14.424902 110.075096,15.075903 
	C139.432663,26.685949 168.717758,38.479256 198.070953,50.100498 
	C200.996246,51.258659 202.162872,52.745693 202.148758,55.939808 
	C202.134842,59.091816 201.071777,60.657070 198.118362,61.806797 
	C185.901596,66.562622 173.782990,71.570595 160.879135,76.716461 
	C159.474670,78.306450 158.275131,79.657028 158.252762,81.026833 
	C158.111557,89.676208 158.231400,98.329842 158.265045,106.982071 
M190.621185,57.388641 
	C189.671738,57.147369 188.722305,56.906094 187.645279,56.705074 
	C187.645279,56.705074 187.685364,56.832703 187.210175,56.260521 
	C186.494629,56.089165 185.779099,55.917809 184.726944,55.398678 
	C183.720276,55.230579 182.713593,55.062477 181.330215,54.289234 
	C180.880981,54.171833 180.431763,54.054436 179.578751,53.753933 
	C179.288818,53.617561 179.002029,53.623856 178.167770,53.180954 
	C177.141037,52.882275 176.114288,52.583599 174.828949,52.057018 
	C174.617432,51.947563 174.393753,51.909325 173.690079,51.439964 
	C172.809647,51.230186 171.929214,51.020409 170.679977,50.419437 
	C169.717941,50.279812 168.755905,50.140182 167.479767,49.385677 
	C166.585831,49.144577 165.691879,48.903477 164.657013,48.691597 
	C164.657013,48.691597 164.685364,48.832703 164.210175,48.260521 
	C163.494629,48.089165 162.779099,47.917809 161.723907,47.397713 
	C160.718353,47.195904 159.712814,46.994099 158.130829,46.173569 
	C157.073517,46.072689 156.016220,45.971813 154.392151,45.614708 
	C153.592255,45.097336 152.792343,44.579967 151.543579,43.867065 
	C151.543579,43.867065 151.056808,43.814323 150.686539,43.422997 
	C149.722321,43.282185 148.758118,43.141369 147.479782,42.385681 
	C146.585831,42.144577 145.691895,41.903477 144.657043,41.691605 
	C144.657043,41.691605 144.685379,41.832691 144.210175,41.260509 
	C143.494629,41.089157 142.779099,40.917805 141.726929,40.398678 
	C140.720261,40.230572 139.713593,40.062466 138.330200,39.289230 
	C137.880981,39.171833 137.431747,39.054436 136.578735,38.753929 
	C136.288818,38.617565 136.002029,38.623863 135.167770,38.180954 
	C134.141037,37.882278 133.114288,37.583599 131.828949,37.057018 
	C131.617432,36.947563 131.393753,36.909325 130.690079,36.439964 
	C129.809647,36.230186 128.929214,36.020409 127.679977,35.419430 
	C126.717957,35.279808 125.755943,35.140182 124.479767,34.385670 
	C123.585815,34.144566 122.691856,33.903461 121.657005,33.691620 
	C121.657005,33.691620 121.685379,33.832699 121.210182,33.260513 
	C120.494629,33.089157 119.779083,32.917801 118.723885,32.397705 
	C117.718361,32.195900 116.712830,31.994093 115.130844,31.173571 
	C114.073524,31.072691 113.016212,30.971811 111.340012,30.545977 
	C107.903061,30.502750 104.192032,29.590439 101.078384,30.572376 
	C89.841362,34.116146 78.804245,38.294220 67.693977,42.239334 
	C58.109871,45.642525 48.516876,49.021244 38.951019,52.475056 
	C32.957119,54.639191 27.006140,56.922211 20.092789,59.504112 
	C32.472134,64.297638 43.733173,68.658127 55.587608,73.483521 
	C56.332600,72.562950 57.677620,71.670189 57.721794,70.717148 
	C57.948875,65.817284 57.841751,60.901939 58.308380,55.475746 
	C70.545883,44.394962 84.674179,37.662445 101.359100,37.029236 
	C106.379692,36.838696 111.417053,37.089878 116.944740,37.875935 
	C118.440659,38.024616 119.936569,38.173298 121.735222,38.817776 
	C122.694405,38.919273 123.653580,39.020771 125.135811,39.622173 
	C126.070183,39.829731 127.004547,40.037289 128.355225,40.631157 
	C128.905136,40.740219 129.455048,40.849285 130.506149,41.167656 
	C130.686874,41.178474 130.867599,41.189289 131.498245,41.576996 
	C132.448380,41.761330 133.398529,41.945667 134.830338,42.686054 
	C135.525543,42.906837 136.220764,43.127621 137.417480,43.812054 
	C143.180649,46.906101 148.943817,50.000149 154.962250,53.606289 
	C155.299500,53.769367 155.636734,53.932449 156.313492,54.567539 
	C156.909363,55.043282 157.505249,55.519024 158.020416,56.928467 
	C158.074921,61.659691 158.037476,66.395569 158.276474,71.117455 
	C158.315277,71.884323 159.578903,72.589195 161.072311,73.115234 
	C170.082901,69.543976 179.093506,65.972725 188.756958,62.212135 
	C189.322250,61.846729 189.887558,61.481323 190.985992,61.107208 
	C191.322723,60.997177 191.659470,60.887150 192.672211,60.717888 
	C193.021667,60.073830 193.371124,59.429771 193.720581,58.785706 
	C192.835052,58.464138 191.949524,58.142567 191.076813,57.901031 
	C191.076813,57.901031 191.156326,57.885372 190.621185,57.388641 
M102.099403,169.869308 
	C102.099403,169.869308 102.165855,169.840530 101.617462,169.359695 
	C100.298454,168.908844 98.979439,168.457977 97.534546,167.964096 
	C96.621445,178.123596 96.621445,178.123596 103.638191,179.638107 
	C106.794022,179.488617 110.042618,179.764938 113.086533,179.101761 
	C119.602242,177.682175 120.816330,174.683228 117.859482,168.653351 
	C114.230408,169.486237 110.607399,170.317734 106.354515,170.974182 
	C105.922943,170.917328 105.491371,170.860474 104.650124,170.401688 
	C104.099716,170.273941 103.549309,170.146194 102.563156,169.832535 
	C102.563156,169.832535 102.090691,169.797424 102.099403,169.869308 
M58.291904,187.298386 
	C55.714771,188.183701 53.137634,189.069016 49.228424,190.411942 
	C88.957794,190.411942 127.168121,190.411942 165.378448,190.411942 
	C165.414612,190.149506 165.450760,189.887070 165.486908,189.624634 
	C162.650894,188.818680 159.814865,188.012726 156.228210,186.979919 
	C149.281967,185.379471 142.405823,183.196960 135.368896,182.349258 
	C128.886658,181.568390 121.995918,181.156174 115.719269,182.544464 
	C109.487167,183.922882 104.082779,183.391251 98.062103,181.999466 
	C93.769440,181.007156 88.866280,182.245804 84.301506,182.929291 
	C75.850349,184.194702 67.447495,185.782730 58.291904,187.298386 
M187.388046,52.838421 
	C191.092697,54.039673 194.797348,55.240925 198.501999,56.442177 
	C196.285065,51.132210 191.308060,51.070892 186.703506,49.028927 
	C161.709732,38.990883 136.677765,29.045732 111.766159,18.807737 
	C108.303848,17.384821 105.572060,17.668360 102.374359,19.015018 
	C79.483589,28.655060 56.551281,38.196484 32.944523,47.933266 
	C27.764109,50.122974 22.583696,52.312683 17.403282,54.502392 
	C17.639315,55.140701 17.875349,55.779011 18.111382,56.417320 
	C23.753435,54.315647 29.395489,52.213978 35.797291,50.041233 
	C53.123360,43.930164 70.450981,37.823479 87.774498,31.705191 
	C92.610153,29.997343 97.385277,28.097004 102.283974,26.598036 
	C104.604469,25.887980 107.401855,25.094400 109.550339,25.752277 
	C118.235550,28.411734 126.741341,31.653059 135.333618,34.620956 
	C152.508286,40.553333 169.696289,46.447124 187.388046,52.838421 
M121.739937,109.999153 
	C115.797943,113.486069 109.121857,113.350945 103.302399,111.197731 
	C93.900642,107.719063 85.049988,102.750931 76.021019,98.437836 
	C74.220337,105.169609 72.235634,112.897446 65.522003,118.202209 
	C64.980461,118.630096 64.877579,120.101570 65.105515,120.943321 
	C70.519409,140.936661 80.452835,157.259644 100.763306,165.413544 
	C105.137962,167.169800 109.065796,167.609009 113.621170,166.130356 
	C135.013306,159.186539 145.746307,143.309875 150.745209,122.515617 
	C150.995255,121.475487 150.895844,120.108414 150.414505,119.174164 
	C146.833130,112.222687 143.114044,105.342155 139.389038,98.347130 
	C134.102005,101.904884 128.257324,105.837883 121.739937,109.999153 
M119.694824,84.952576 
	C131.354706,87.734413 143.014587,90.516243 154.939774,93.361374 
	C154.939774,82.600342 154.996918,71.016304 154.845215,59.435009 
	C154.831131,58.359322 153.735687,56.836693 152.729355,56.308559 
	C145.139603,52.325394 137.684891,47.904591 129.704880,44.906319 
	C124.025337,42.772388 117.300766,43.456181 111.574791,41.400223 
	C104.541458,38.874859 97.881226,40.684772 91.397644,41.867664 
	C81.142174,43.738716 71.584015,48.063351 63.774658,55.327473 
	C62.407967,56.598747 61.191700,58.783840 61.135063,60.585529 
	C60.837147,70.062668 60.894562,79.552277 60.909100,89.037437 
	C60.917114,94.268204 61.889767,94.825478 66.829582,92.571358 
	C83.412575,85.004272 100.742805,82.535255 119.694824,84.952576 
M82.685616,96.840134 
	C83.738342,97.649117 84.746544,98.525330 85.850777,99.256538 
	C95.371811,105.561302 105.121002,111.642014 117.228775,107.873398 
	C125.788452,105.209152 132.973541,100.291428 138.213593,91.943329 
	C117.621681,86.063957 97.914017,87.947906 76.842209,91.751564 
	C79.406868,94.006187 80.764633,95.199814 82.685616,96.840134 
M61.224819,107.144043 
	C61.769211,109.793137 62.313599,112.442230 62.921097,115.398407 
	C69.214760,110.989784 73.903267,99.294891 71.864388,94.358383 
	C61.044979,97.552032 60.815601,97.807877 61.224819,107.144043 
M145.556000,102.859093 
	C147.678604,107.224335 149.801208,111.589584 151.923813,115.954834 
	C152.671814,115.750824 153.419800,115.546822 154.167786,115.342812 
	C154.474625,111.324997 154.898392,107.311615 155.051117,103.287941 
	C155.172043,100.102005 149.434341,94.813240 146.360168,95.352539 
	C145.492325,95.504791 144.305496,96.922676 144.237213,97.833000 
	C144.132202,99.233017 144.867386,100.696053 145.556000,102.859093 
M63.967781,128.510376 
	C62.270973,123.377121 60.574162,118.243866 58.939148,113.297562 
	C54.044689,112.848114 52.912247,115.141258 53.130455,118.985512 
	C53.394634,123.639664 55.516438,127.186485 59.197968,129.783279 
	C60.709866,130.849701 62.701679,132.388977 63.967781,128.510376 
M162.582779,122.631645 
	C162.721268,120.505585 163.195602,118.325516 162.865829,116.274757 
	C162.683014,115.137978 161.316147,113.813034 160.171387,113.359650 
	C159.542664,113.110657 157.933823,114.281052 157.354324,115.187164 
	C156.215530,116.967743 155.042099,118.933723 154.691132,120.962784 
	C154.140167,124.148201 154.258362,127.449348 154.093170,130.701492 
	C158.655899,130.315506 160.851532,127.272346 162.582779,122.631645 
z"/>
<path fill="#344FFF" opacity="1.000000" stroke="none" 
	d="
M39.079784,194.007965 
	C84.807854,193.762711 130.921616,193.748062 177.496872,193.656113 
	C176.095734,194.052368 174.233871,194.935959 172.370392,194.939346 
	C129.686050,195.017273 87.001541,195.007553 44.317108,194.966995 
	C42.699669,194.965454 41.082680,194.492096 39.079784,194.007965 
z"/>
<path fill="#4B5EFF" opacity="1.000000" stroke="none" 
	d="
M158.576370,106.774292 
	C158.231400,98.329842 158.111557,89.676208 158.252762,81.026833 
	C158.275131,79.657028 159.474670,78.306450 160.587509,76.905167 
	C160.696701,84.560524 160.407516,92.261108 159.962753,99.952698 
	C159.834488,102.170609 159.258453,104.362625 158.576370,106.774292 
z"/>
<path fill="#5567FF" opacity="1.000000" stroke="none" 
	d="
M122.076294,109.885017 
	C128.257324,105.837883 134.102005,101.904884 139.389038,98.347130 
	C143.114044,105.342155 146.833130,112.222687 150.414505,119.174164 
	C150.895844,120.108414 150.995255,121.475487 150.745209,122.515617 
	C145.746307,143.309875 135.013306,159.186539 113.621170,166.130356 
	C109.065796,167.609009 105.137962,167.169800 100.763306,165.413544 
	C80.452835,157.259644 70.519409,140.936661 65.105515,120.943321 
	C64.877579,120.101570 64.980461,118.630096 65.522003,118.202209 
	C72.235634,112.897446 74.220337,105.169609 76.021019,98.437836 
	C85.049988,102.750931 93.900642,107.719063 103.302399,111.197731 
	C109.121857,113.350945 115.797943,113.486069 122.076294,109.885017 
z"/>
<path fill="#5567FF" opacity="1.000000" stroke="none" 
	d="
M119.242096,84.922821 
	C100.742805,82.535255 83.412575,85.004272 66.829582,92.571358 
	C61.889767,94.825478 60.917114,94.268204 60.909100,89.037437 
	C60.894562,79.552277 60.837147,70.062668 61.135063,60.585529 
	C61.191700,58.783840 62.407967,56.598747 63.774658,55.327473 
	C71.584015,48.063351 81.142174,43.738716 91.397644,41.867664 
	C97.881226,40.684772 104.541458,38.874859 111.574791,41.400223 
	C117.300766,43.456181 124.025337,42.772388 129.704880,44.906319 
	C137.684891,47.904591 145.139603,52.325394 152.729355,56.308559 
	C153.735687,56.836693 154.831131,58.359322 154.845215,59.435009 
	C154.996918,71.016304 154.939774,82.600342 154.939774,93.361374 
	C143.014587,90.516243 131.354706,87.734413 119.242096,84.922821 
z"/>
<path fill="#5567FF" opacity="1.000000" stroke="none" 
	d="
M158.707260,46.792290 
	C159.712814,46.994099 160.718353,47.195904 162.172256,47.804043 
	C163.308853,48.417816 163.997116,48.625259 164.685364,48.832703 
	C164.685364,48.832703 164.657013,48.691597 164.978653,48.911469 
	C166.131485,49.421082 166.962677,49.710819 167.793869,50.000557 
	C168.755905,50.140182 169.717941,50.279812 171.119446,50.841003 
	C172.425232,51.489147 173.291565,51.715721 174.157883,51.942295 
	C174.393753,51.909325 174.617432,51.947563 175.221802,52.489651 
	C176.649216,53.205795 177.683792,53.489311 178.718369,53.772823 
	C179.002029,53.623856 179.288818,53.617561 180.048004,54.037849 
	C180.913818,54.512630 181.310379,54.703503 181.706924,54.894375 
	C182.713593,55.062477 183.720276,55.230579 185.173767,55.804527 
	C186.308853,56.417816 186.997116,56.625259 187.685364,56.832703 
	C187.685364,56.832703 187.645279,56.705074 187.999847,56.925316 
	C189.288376,57.392162 190.222351,57.638767 191.156326,57.885372 
	C191.156326,57.885372 191.076813,57.901031 191.174347,58.154198 
	C191.513321,59.197285 191.754761,59.987198 191.996201,60.777119 
	C191.659470,60.887150 191.322723,60.997177 190.377991,61.177071 
	C189.214706,61.631775 188.659409,62.016624 188.104095,62.401470 
	C179.093506,65.972725 170.082901,69.543976 160.626953,72.659042 
	C160.113144,68.717209 160.244064,65.211655 159.898712,61.753666 
	C159.702957,59.793739 158.726151,57.911819 158.101120,55.994766 
	C157.505249,55.519024 156.909363,55.043282 155.955475,54.136929 
	C155.300644,53.502277 155.003815,53.298237 154.706985,53.094193 
	C148.943817,50.000149 143.180649,46.906101 136.903656,43.329597 
	C135.709457,42.608097 135.029053,42.369049 134.348663,42.130005 
	C133.398529,41.945667 132.448380,41.761330 131.170929,41.274895 
	C130.572601,40.784203 130.293045,40.779388 130.004959,40.958347 
	C129.455048,40.849285 128.905136,40.740219 127.875618,40.198471 
	C126.468262,39.551281 125.540512,39.336773 124.612762,39.122269 
	C123.653580,39.020771 122.694405,38.919273 121.198212,38.362526 
	C119.256371,37.651085 117.851555,37.394897 116.446732,37.138710 
	C111.417053,37.089878 106.379692,36.838696 101.359100,37.029236 
	C84.674179,37.662445 70.545883,44.394962 57.758549,55.932968 
	C56.815506,58.398117 56.306240,60.391644 56.054798,62.417179 
	C55.617413,65.940582 55.339172,69.483742 54.994213,73.018623 
	C43.733173,68.658127 32.472134,64.297638 20.092789,59.504112 
	C27.006140,56.922211 32.957119,54.639191 38.951019,52.475056 
	C48.516876,49.021244 58.109871,45.642525 67.693977,42.239334 
	C78.804245,38.294220 89.841362,34.116146 101.078384,30.572376 
	C104.192032,29.590439 107.903061,30.502750 111.975670,30.929108 
	C113.643318,31.472254 114.675316,31.632271 115.707306,31.792288 
	C116.712830,31.994093 117.718361,32.195900 119.172226,32.804031 
	C120.308846,33.417809 120.997108,33.625252 121.685379,33.832699 
	C121.685379,33.832699 121.657005,33.691620 121.978638,33.911476 
	C123.131493,34.421074 123.962708,34.710815 124.793922,35.000557 
	C125.755943,35.140182 126.717957,35.279808 128.119446,35.841003 
	C129.425232,36.489147 130.291565,36.715721 131.157883,36.942295 
	C131.393753,36.909325 131.617432,36.947563 132.221802,37.489647 
	C133.649231,38.205795 134.683792,38.489311 135.718369,38.772827 
	C136.002029,38.623863 136.288818,38.617565 137.048004,39.037846 
	C137.913818,39.512630 138.310364,39.703495 138.706924,39.894360 
	C139.713593,40.062466 140.720261,40.230572 142.173767,40.804520 
	C143.308868,41.417809 143.997116,41.625248 144.685379,41.832691 
	C144.685379,41.832691 144.657043,41.691605 144.978668,41.911469 
	C146.131500,42.421074 146.962692,42.710815 147.793900,43.000557 
	C148.758118,43.141369 149.722321,43.282185 150.957397,43.729332 
	C151.228241,44.035667 151.601151,44.180500 151.601151,44.180500 
	C151.601151,44.180500 151.992447,44.062599 151.992447,44.062599 
	C152.792343,44.579967 153.592255,45.097336 155.001740,45.963474 
	C156.643311,46.472256 157.675293,46.632275 158.707260,46.792290 
z"/>
<path fill="#5668FF" opacity="1.000000" stroke="none" 
	d="
M82.404007,96.616791 
	C80.764633,95.199814 79.406868,94.006187 76.842209,91.751564 
	C97.914017,87.947906 117.621681,86.063957 138.213593,91.943329 
	C132.973541,100.291428 125.788452,105.209152 117.228775,107.873398 
	C105.121002,111.642014 95.371811,105.561302 85.850777,99.256538 
	C84.746544,98.525330 83.738342,97.649117 82.404007,96.616791 
z"/>
<path fill="#5669FF" opacity="1.000000" stroke="none" 
	d="
M33.632172,47.769245 
	C56.551281,38.196484 79.483589,28.655060 102.374359,19.015018 
	C105.572060,17.668360 108.303848,17.384821 111.766159,18.807737 
	C136.677765,29.045732 161.709732,38.990883 186.875534,49.758438 
	C186.991302,51.110920 186.935043,51.733883 186.878784,52.356850 
	C169.696289,46.447124 152.508286,40.553333 135.333618,34.620956 
	C126.741341,31.653059 118.235550,28.411734 109.550339,25.752277 
	C107.401855,25.094400 104.604469,25.887980 102.283974,26.598036 
	C97.385277,28.097004 92.610153,29.997343 87.774498,31.705191 
	C70.450981,37.823479 53.123360,43.930164 35.312885,49.745560 
	C34.429710,48.889671 34.030941,48.329460 33.632172,47.769245 
z"/>
<path fill="#586AFF" opacity="1.000000" stroke="none" 
	d="
M59.024529,187.236389 
	C67.447495,185.782730 75.850349,184.194702 84.301506,182.929291 
	C88.866280,182.245804 93.769440,181.007156 98.062103,181.999466 
	C104.082779,183.391251 109.487167,183.922882 115.719269,182.544464 
	C121.995918,181.156174 128.886658,181.568390 135.368896,182.349258 
	C142.405823,183.196960 149.281967,185.379471 156.409149,187.417633 
	C155.044678,188.249741 153.500061,188.984573 151.953735,188.988144 
	C122.572975,189.056107 93.191917,189.066010 63.811378,188.960693 
	C62.213722,188.954956 60.620052,187.836746 59.024529,187.236389 
z"/>
<path fill="#6273FF" opacity="1.000000" stroke="none" 
	d="
M58.658218,187.267380 
	C60.620052,187.836746 62.213722,188.954956 63.811378,188.960693 
	C93.191917,189.066010 122.572975,189.056107 151.953735,188.988144 
	C153.500061,188.984573 155.044678,188.249741 156.784454,187.531052 
	C159.814865,188.012726 162.650894,188.818680 165.486908,189.624634 
	C165.450760,189.887070 165.414612,190.149506 165.378448,190.411942 
	C127.168121,190.411942 88.957794,190.411942 49.228424,190.411942 
	C53.137634,189.069016 55.714771,188.183701 58.658218,187.267380 
z"/>
<path fill="#5668FF" opacity="1.000000" stroke="none" 
	d="
M102.998901,170.018463 
	C103.549309,170.146194 104.099716,170.273941 105.002563,170.770813 
	C105.898132,171.143036 106.441261,171.146133 106.984398,171.149231 
	C110.607399,170.317734 114.230408,169.486237 117.859482,168.653351 
	C120.816330,174.683228 119.602242,177.682175 113.086533,179.101761 
	C110.042618,179.764938 106.794022,179.488617 103.102005,179.169098 
	C97.727531,174.811966 97.608917,172.184509 102.165855,169.840530 
	C102.165855,169.840530 102.099403,169.869308 102.175056,169.946136 
	C102.250710,170.022980 102.621407,170.155792 102.621407,170.155792 
	C102.621407,170.155792 102.998901,170.018463 102.998901,170.018463 
z"/>
<path fill="#586AFF" opacity="1.000000" stroke="none" 
	d="
M61.203781,106.708145 
	C60.815601,97.807877 61.044979,97.552032 71.864388,94.358383 
	C73.903267,99.294891 69.214760,110.989784 62.921097,115.398407 
	C62.313599,112.442230 61.769211,109.793137 61.203781,106.708145 
z"/>
<path fill="#5669FF" opacity="1.000000" stroke="none" 
	d="
M145.401047,102.495728 
	C144.867386,100.696053 144.132202,99.233017 144.237213,97.833000 
	C144.305496,96.922676 145.492325,95.504791 146.360168,95.352539 
	C149.434341,94.813240 155.172043,100.102005 155.051117,103.287941 
	C154.898392,107.311615 154.474625,111.324997 154.167786,115.342812 
	C153.419800,115.546822 152.671814,115.750824 151.923813,115.954834 
	C149.801208,111.589584 147.678604,107.224335 145.401047,102.495728 
z"/>
<path fill="#586AFF" opacity="1.000000" stroke="none" 
	d="
M63.979317,128.905624 
	C62.701679,132.388977 60.709866,130.849701 59.197968,129.783279 
	C55.516438,127.186485 53.394634,123.639664 53.130455,118.985512 
	C52.912247,115.141258 54.044689,112.848114 58.939148,113.297562 
	C60.574162,118.243866 62.270973,123.377121 63.979317,128.905624 
z"/>
<path fill="#5A6CFF" opacity="1.000000" stroke="none" 
	d="
M162.441437,123.011093 
	C160.851532,127.272346 158.655899,130.315506 154.093170,130.701492 
	C154.258362,127.449348 154.140167,124.148201 154.691132,120.962784 
	C155.042099,118.933723 156.215530,116.967743 157.354324,115.187164 
	C157.933823,114.281052 159.542664,113.110657 160.171387,113.359650 
	C161.316147,113.813034 162.683014,115.137978 162.865829,116.274757 
	C163.195602,118.325516 162.721268,120.505585 162.441437,123.011093 
z"/>
<path fill="#4E63FF" opacity="1.000000" stroke="none" 
	d="
M33.288345,47.851257 
	C34.030941,48.329460 34.429710,48.889671 34.933014,49.781097 
	C29.395489,52.213978 23.753435,54.315647 18.111382,56.417320 
	C17.875349,55.779011 17.639315,55.140701 17.403282,54.502392 
	C22.583696,52.312683 27.764109,50.122974 33.288345,47.851257 
z"/>
<path fill="#5065FF" opacity="1.000000" stroke="none" 
	d="
M187.133423,52.597633 
	C186.935043,51.733883 186.991302,51.110920 187.091461,50.020813 
	C191.308060,51.070892 196.285065,51.132210 198.501999,56.442177 
	C194.797348,55.240925 191.092697,54.039673 187.133423,52.597633 
z"/>
<path fill="#5E70FF" opacity="1.000000" stroke="none" 
	d="
M55.290909,73.251068 
	C55.339172,69.483742 55.617413,65.940582 56.054798,62.417179 
	C56.306240,60.391644 56.815506,58.398117 57.530025,56.191093 
	C57.841751,60.901939 57.948875,65.817284 57.721794,70.717148 
	C57.677620,71.670189 56.332600,72.562950 55.290909,73.251068 
z"/>
<path fill="#5D6EFF" opacity="1.000000" stroke="none" 
	d="
M158.060760,56.461617 
	C158.726151,57.911819 159.702957,59.793739 159.898712,61.753666 
	C160.244064,65.211655 160.113144,68.717209 160.229004,72.762787 
	C159.578903,72.589195 158.315277,71.884323 158.276474,71.117455 
	C158.037476,66.395569 158.074921,61.659691 158.060760,56.461617 
z"/>
<path fill="#5D6EFF" opacity="1.000000" stroke="none" 
	d="
M101.891663,169.600113 
	C97.608917,172.184509 97.727531,174.811966 102.819885,178.966064 
	C96.621445,178.123596 96.621445,178.123596 97.534546,167.964096 
	C98.979439,168.457977 100.298454,168.908844 101.891663,169.600113 
z"/>
<path fill="#5567FF" opacity="1.000000" stroke="none" 
	d="
M192.334198,60.747501 
	C191.754761,59.987198 191.513321,59.197285 191.167938,58.114182 
	C191.949524,58.142567 192.835052,58.464138 193.720581,58.785709 
	C193.371124,59.429771 193.021667,60.073830 192.334198,60.747501 
z"/>
<path fill="#5567FF" opacity="1.000000" stroke="none" 
	d="
M116.695740,37.507324 
	C117.851555,37.394897 119.256371,37.651085 121.046844,38.114624 
	C119.936569,38.173298 118.440659,38.024616 116.695740,37.507324 
z"/>
<path fill="#5567FF" opacity="1.000000" stroke="none" 
	d="
M135.443069,38.476891 
	C134.683792,38.489311 133.649231,38.205795 132.351105,37.603600 
	C133.114288,37.583599 134.141037,37.882278 135.443069,38.476891 
z"/>
<path fill="#5567FF" opacity="1.000000" stroke="none" 
	d="
M124.874283,39.372223 
	C125.540512,39.336773 126.468262,39.551281 127.667465,40.005318 
	C127.004547,40.037289 126.070183,39.829731 124.874283,39.372223 
z"/>
<path fill="#5567FF" opacity="1.000000" stroke="none" 
	d="
M147.636841,42.693119 
	C146.962692,42.710815 146.131500,42.421074 145.049118,41.896858 
	C145.691895,41.903477 146.585831,42.144577 147.636841,42.693119 
z"/>
<path fill="#5567FF" opacity="1.000000" stroke="none" 
	d="
M190.888763,57.637009 
	C190.222351,57.638767 189.288376,57.392162 188.063629,56.905190 
	C188.722305,56.906094 189.671738,57.147369 190.888763,57.637009 
z"/>
<path fill="#5567FF" opacity="1.000000" stroke="none" 
	d="
M130.923981,36.691132 
	C130.291565,36.715721 129.425232,36.489147 128.303848,36.036602 
	C128.929214,36.020409 129.809647,36.230186 130.923981,36.691132 
z"/>
<path fill="#5567FF" opacity="1.000000" stroke="none" 
	d="
M178.443069,53.476891 
	C177.683792,53.489311 176.649216,53.205795 175.351105,52.603603 
	C176.114288,52.583599 177.141037,52.882275 178.443069,53.476891 
z"/>
<path fill="#5567FF" opacity="1.000000" stroke="none" 
	d="
M124.636841,34.693115 
	C123.962708,34.710815 123.131493,34.421074 122.049088,33.896847 
	C122.691856,33.903461 123.585815,34.144566 124.636841,34.693115 
z"/>
<path fill="#5567FF" opacity="1.000000" stroke="none" 
	d="
M173.923981,51.691132 
	C173.291565,51.715721 172.425232,51.489147 171.303848,51.036602 
	C171.929214,51.020409 172.809647,51.230186 173.923981,51.691132 
z"/>
<path fill="#5567FF" opacity="1.000000" stroke="none" 
	d="
M167.636810,49.693115 
	C166.962677,49.710819 166.131485,49.421082 165.049118,48.896862 
	C165.691879,48.903477 166.585831,49.144577 167.636810,49.693115 
z"/>
<path fill="#5567FF" opacity="1.000000" stroke="none" 
	d="
M158.419037,46.482933 
	C157.675293,46.632275 156.643311,46.472256 155.285126,46.091587 
	C156.016220,45.971813 157.073517,46.072689 158.419037,46.482933 
z"/>
<path fill="#5567FF" opacity="1.000000" stroke="none" 
	d="
M115.419075,31.482929 
	C114.675316,31.632271 113.643318,31.472254 112.285110,31.091585 
	C113.016212,30.971811 114.073524,31.072691 115.419075,31.482929 
z"/>
<path fill="#5D6EFF" opacity="1.000000" stroke="none" 
	d="
M106.669456,171.061707 
	C106.441261,171.146133 105.898132,171.143036 105.207397,170.971771 
	C105.491371,170.860474 105.922943,170.917328 106.669456,171.061707 
z"/>
<path fill="#5567FF" opacity="1.000000" stroke="none" 
	d="
M121.447784,33.546608 
	C120.997108,33.625252 120.308846,33.417809 119.342056,32.978401 
	C119.779083,32.917801 120.494629,33.089157 121.447784,33.546608 
z"/>
<path fill="#5567FF" opacity="1.000000" stroke="none" 
	d="
M188.430527,62.306805 
	C188.659409,62.016624 189.214706,61.631775 190.111435,61.181423 
	C189.887558,61.481323 189.322250,61.846729 188.430527,62.306805 
z"/>
<path fill="#5567FF" opacity="1.000000" stroke="none" 
	d="
M144.447784,41.546600 
	C143.997116,41.625248 143.308868,41.417809 142.342072,40.978409 
	C142.779099,40.917805 143.494629,41.089157 144.447784,41.546600 
z"/>
<path fill="#5567FF" opacity="1.000000" stroke="none" 
	d="
M187.447769,56.546612 
	C186.997116,56.625259 186.308853,56.417816 185.342072,55.978413 
	C185.779099,55.917809 186.494629,56.089165 187.447769,56.546612 
z"/>
<path fill="#5567FF" opacity="1.000000" stroke="none" 
	d="
M134.589508,42.408028 
	C135.029053,42.369049 135.709457,42.608097 136.652908,43.097778 
	C136.220764,43.127621 135.525543,42.906837 134.589508,42.408028 
z"/>
<path fill="#5567FF" opacity="1.000000" stroke="none" 
	d="
M164.447769,48.546612 
	C163.997116,48.625259 163.308853,48.417816 162.342072,47.978413 
	C162.779099,47.917809 163.494629,48.089165 164.447769,48.546612 
z"/>
<path fill="#5567FF" opacity="1.000000" stroke="none" 
	d="
M138.518555,39.591797 
	C138.310364,39.703495 137.913818,39.512630 137.249893,39.129402 
	C137.431747,39.054436 137.880981,39.171833 138.518555,39.591797 
z"/>
<path fill="#5567FF" opacity="1.000000" stroke="none" 
	d="
M130.255554,41.063004 
	C130.293045,40.779388 130.572601,40.784203 130.945969,41.086445 
	C130.867599,41.189289 130.686874,41.178474 130.255554,41.063004 
z"/>
<path fill="#5D6EFF" opacity="1.000000" stroke="none" 
	d="
M102.781029,169.925507 
	C102.998901,170.018463 102.621407,170.155792 102.621407,170.155792 
	C102.621407,170.155792 102.250710,170.022980 102.170700,169.910202 
	C102.090691,169.797424 102.563156,169.832535 102.781029,169.925507 
z"/>
<path fill="#5567FF" opacity="1.000000" stroke="none" 
	d="
M181.518570,54.591805 
	C181.310379,54.703503 180.913818,54.512630 180.249908,54.129402 
	C180.431763,54.054436 180.880981,54.171833 181.518570,54.591805 
z"/>
<path fill="#5567FF" opacity="1.000000" stroke="none" 
	d="
M154.834625,53.350243 
	C155.003815,53.298237 155.300644,53.502277 155.785736,53.900925 
	C155.636734,53.932449 155.299500,53.769367 154.834625,53.350243 
z"/>
<path fill="#5567FF" opacity="1.000000" stroke="none" 
	d="
M151.768005,43.964832 
	C151.992447,44.062599 151.601151,44.180500 151.601151,44.180500 
	C151.601151,44.180500 151.228241,44.035667 151.142517,43.924995 
	C151.056808,43.814323 151.543579,43.867065 151.768005,43.964832 
z"/>
</svg>