<?xml version="1.0" encoding="UTF-8" standalone="no"?>
<svg xmlns:inkscape="http://www.inkscape.org/namespaces/inkscape" xmlns:sodipodi="http://sodipodi.sourceforge.net/DTD/sodipodi-0.dtd" xmlns:xlink="http://www.w3.org/1999/xlink" xmlns="http://www.w3.org/2000/svg" xmlns:svg="http://www.w3.org/2000/svg" width="128" height="124.71879" viewBox="0 0 128 124.71879" version="1.1" id="svg31" sodipodi:docname="80986a81b24c0c039f0afde38cda5fb8.svg"><metadata><meta name="Producer" content="Online-Convert"/></metadata>
  <sodipodi:namedview id="namedview33" pagecolor="#ffffff" bordercolor="#666666" borderopacity="1.0" inkscape:pageshadow="2" inkscape:pageopacity="0.0" inkscape:pagecheckerboard="0"/>
  <!-- Generator: Sketch 50.2 (55047) - http://www.bohemiancoding.com/sketch -->
  <title id="title2">illustration/student/white</title>
  <desc id="desc4">Created with Sketch.</desc>
  <defs id="defs7">
    <rect id="path-1" x="0" y="0" width="128" height="128"/>
  </defs>
  <g id="-Symbols" stroke="none" stroke-width="1" fill="none" fill-rule="evenodd" transform="translate(0,-0.0084096)">
    <g id="section/signup/header" transform="translate(-172,-61)">
      <g id="header">
        <g id="header/left">
          <g id="Group" transform="translate(172,60)">
            <g id="illustration/student/128/white">
              <mask id="mask-2" fill="#ffffff">
                <use xlink:href="#path-1" id="use9" x="0" y="0" width="100%" height="100%"/>
              </mask>
              <g id="container"/>
              <g id="student" stroke-width="1" fill-rule="evenodd" mask="url(#mask-2)" stroke="#ffffff" stroke-linecap="round" stroke-linejoin="round">
                <g transform="translate(1,2)" stroke-width="2" id="g22">
                  <path d="m 16.256664,122.72719 h 93.850086 c -13.929023,-5.41178 -26.359874,-8.36538 -37.292555,-8.8608 -1.841437,-0.0834 -5.257495,0.65772 -10.248177,2.22351 -4.348319,-1.55985 -7.412226,-2.30102 -9.191722,-2.22351 -11.029064,0.48038 -23.401608,3.43399 -37.117632,8.8608 z" id="torso"/>
                  <path d="m 54.664801,103.89228 1.3e-4,9.72432 7.84258,2.46908 9.194436,-2.46908 1.31e-4,-9.72432 c -2.405935,1.22423 -5.470791,2.29084 -9.194567,3.19982 -2.530101,-0.71838 -5.144338,-1.78499 -7.84271,-3.19982 z" id="neck"/>
                  <path d="m 96.096268,66.725293 2.603718,0.132548 c 1.610094,0.08197 2.888564,1.384455 2.940544,2.995797 0.14044,4.353781 -0.85816,7.444768 -2.995793,9.272961 -3.31579,3.032727 -5.802632,2.757024 -7.184211,1.929917 0.276316,-1.378512 1.381579,-3.859834 2.486842,-9.373883 1.334653,-1.619644 2.015925,-3.239288 2.043817,-4.858932 l -2.59e-4,-4e-6 c 9.54e-4,-0.05536 0.04661,-0.09947 0.101971,-0.09852 0.0011,1.9e-5 0.0022,5.7e-5 0.0034,1.14e-4 z" id="ear/right"/>
                  <path d="m 29.213607,66.729936 2.578043,0.127905 c 1.65317,0.08202 2.965403,1.421339 3.013632,3.07584 0.125653,4.311643 -0.873761,7.375948 -2.998274,9.192918 -3.31579,3.032727 -5.833348,2.757024 -7.214927,1.929917 0,-1.10281 1.381579,-4.135536 2.763158,-9.925287 1.02186,-1.731397 1.571513,-3.136602 1.648959,-4.215614 l -2.43e-4,-1.7e-5 c 0.0078,-0.10859 0.100917,-0.191057 0.209652,-0.185662 z" id="ear/left" transform="matrix(-1,0,0,1,59.40787,0)"/>
                  <path d="m 32.052632,71.131229 c 2.763157,11.028097 8.289473,29.224461 30.394736,35.841311 16.947369,-3.30842 27.447369,-15.071728 31.5,-35.289907 -3.315789,-1.838016 -6.14155,-7.805645 -8.477282,-17.902888 -14.733244,17.351484 -27.44377,15.697269 -44.604492,0 -2.181384,12.38884 -6.049805,16.248674 -8.812962,17.351484 z" id="face"/>
                  <path d="m 29.842105,57.346107 c 0.454747,10.823811 0.454747,10.498905 2.210527,13.785122 5.826917,-2.669656 7.24158,-10.772925 8.831747,-17.233018 19.204142,17.69665 31.467481,14.905163 44.461188,0 1.993316,6.460093 3.664816,14.905163 8.626895,17.69665 2.185433,-2.791487 2.185433,-3.448973 2.185433,-14.248754 -15.4977,-8.83971 -42.671361,-13.754429 -66.31579,0 z" id="hair"/>
                  <path d="m 29.842105,28.673053 c 22.066139,-20.7799938 50.081155,-12.34953 66.31579,0.07808 0,10.2683 0,24.769064 0,28.594974 -19.41955,-10.746876 -45.711105,-12.044616 -66.31579,0 0,-8.568854 0,-28.673054 0,-28.673054 z" id="hat/3"/>
                  <path d="M 0.24480097,30.238643 62.447368,7.7196682 125.75265,30.239278 c 0.052,0.01851 0.0792,0.0757 0.0607,0.127732 -0.01,0.02687 -0.0301,0.04838 -0.0566,0.05912 L 96.157895,42.458175 c 0,-6.984462 0,-11.579502 0,-13.785122 -15.473684,-11.579502 -43.105263,-21.5047897 -66.31579,0 0,1.470413 0,6.065454 0,13.785122 L 0.24118371,30.42531 c -0.0511628,-0.0208 -0.0757785,-0.07913 -0.0549806,-0.130296 0.0106672,-0.02624 0.031963,-0.04673 0.0585979,-0.05637 z" id="hat/2"/>
                  <path d="M 0.06097674,26.44159 62.409086,0.01622545 c 0.0245,-0.01038597 0.05214,-0.01057501 0.07678,-5.2527e-4 L 125.93776,25.890648 c 0.0376,0.01535 0.0622,0.05195 0.0622,0.0926 v 4.202311 c 0,0.05523 -0.0448,0.1 -0.1,0.1 -0.0114,0 -0.0228,-0.002 -0.0335,-0.0058 L 62.48118,7.7316961 c -0.02186,-0.00778 -0.04574,-0.00771 -0.06756,1.884e-4 L 0.13404057,30.278742 c -0.05193015,0.0188 -0.10926834,-0.0081 -0.12806843,-0.05999 C 0.00202089,30.20784 0,30.196321 0,30.184714 v -3.651053 c 0,-0.04015 0.02401139,-0.0764 0.06097674,-0.09207 z" id="hat/1"/>
                </g>
              </g>
            </g>
          </g>
        </g>
      </g>
    </g>
  </g>
</svg>
